<svg xmlns="http://www.w3.org/2000/svg" viewBox="0 0 334.3 132.48">
  <defs>
    <style>.a{fill:#0d070f;}.b{fill:#e83578;}</style>
  </defs>
  <title>theguysdesign</title>
  <path class="a" d="M174.5,70.16c0,.79-1.55,1.14-4.67,1.06-3.69-.08-5.65.74-5.9,2.48q-.24,1.48-.24,9.77v5.08q-14.81,10-28.22,10-17.65,0-29.53-12.43t-11.87-31q0-19.63,12.18-32.69T136.83,9.43a37.4,37.4,0,0,1,15.67,3.73,12.32,12.32,0,0,0,4.1,1.37c1.33,0,2.44-1,3.36-3,.41-1,.87-1.5,1.37-1.5s.87.42.87,1.25c0,.16-.13,1.82-.38,5-.08,1-.12,3.36-.12,7.09q0,4.23.5,12.93c0,1.57-.42,2.36-1.25,2.36q-1.74,0-2.36-5-1.49-11-7.21-17.29-4.23-4.59-11.81-4.6-23.5,0-23.5,41.78,0,26,7.74,36.18a15.43,15.43,0,0,0,13,6.46Q147,96.21,147,83.28c0-6.46-.28-10.09-.82-10.88s-2-1.18-4.21-1.18h-3.15c-1.76,0-2.64-.37-2.64-1.12s.71-1.12,2.12-1.12c2.9,0,6.54,0,10.94.13H173C174,69.11,174.5,69.46,174.5,70.16Z" transform="translate(-9.22 -9.43)" />
  <path class="a" d="M241.76,92.85c0,.67-.7,1-2.11,1.12A124.77,124.77,0,0,0,224,95.15a19.41,19.41,0,0,0-7.46,2.93,2.49,2.49,0,0,1-1.36.49c-.34,0-.5-.33-.5-1V92.23a13.2,13.2,0,0,0-.13-2q-7.77,8.34-16.9,8.33-8.15,0-12.83-5.23-3-3.24-3-12V49c0-1.83-.27-2.95-.8-3.37s-2-.66-4.47-.75c-2.13-.08-3.19-.41-3.19-1s.58-1,1.74-1h1.37c1.24,0,3.13.06,5.66.18s4.24.19,5.16.19c.16,0,1-.06,2.55-.19s3.79-.18,6.77-.18H199V56.37q0,9.62-.24,14.12c-.17,3-.25,4.28-.25,3.87q0,13.11,1.68,16.36A5.54,5.54,0,0,0,205.46,94q4.09,0,7.71-4.61a5.58,5.58,0,0,0,1.3-2.8q.19-1.44.19-7V58.08c0-6.07-.08-9.72-.25-11q-.24-2.37-3.06-2.37h-3.43c-1.14,0-1.72-.33-1.72-1q0-.75,6.69-.75,5.81,0,18.43-.12v40.4a49,49,0,0,0,.25,6.9c.16.71.78,1.18,1.86,1.43a47.79,47.79,0,0,0,6.71.25Q241.76,91.86,241.76,92.85Z" transform="translate(-9.22 -9.43)" />
  <path class="a" d="M295.72,43.87c0,.58-.17.93-.5,1.06a17.25,17.25,0,0,1-3.48.18,11.31,11.31,0,0,0-4,.38L287,46.85l-1.49,4.36c-.66,2-2.15,6-4.47,12q-.26.75-5.47,15.3Q263.27,113,259.66,120.21q-4.47,8.94-11.43,9a8.78,8.78,0,0,1-6.41-2.37,8.29,8.29,0,0,1-2.42-6.21q0-6.09,6.71-6.09a4.66,4.66,0,0,1,3.61,1.49,18,18,0,0,1,2.11,3.48,2.73,2.73,0,0,0,2.36,1.24q2.49,0,4.79-4.16t6.28-15.73q-1-2-3.85-8.83-3.74-9.45-10-24.73Q250,63.52,244.76,51q-1.74-4.39-3-5.24t-5.73-1c-1,0-1.49-.29-1.49-.87s.5-.87,1.49-.87H266.5c.91,0,1.37.29,1.37.87,0,.75-1.24,1.08-3.73,1s-3.73.46-3.73,1.62a12.46,12.46,0,0,0,1,3.86c.92,2.32,1.41,3.68,1.5,4.1q6.09,16.91,9.94,25.73,11.57-29.46,11.56-33.56c0-.92-.95-1.37-2.86-1.37-4,0-6-.38-6-1.12s.49-1.12,1.49-1.12q1.24,0,2.49.12a63.76,63.76,0,0,0,6.46.25c.33,0,1.55-.06,3.67-.18s3.5-.19,4.16-.19h.75C295.35,43,295.72,43.29,295.72,43.87Z" transform="translate(-9.22 -9.43)" />
  <path class="a" d="M331.4,79.68q0,8.32-5.08,13.48a17.64,17.64,0,0,1-13.14,5.16,28.38,28.38,0,0,1-9.42-2,23,23,0,0,0-5.82-1.62,3,3,0,0,0-3.1,1.8q-.75,1.8-1.11,1.8-.75,0-.75-.87a22.9,22.9,0,0,1,.2-2.38,76.44,76.44,0,0,0,.3-8.26V80.68c0-.92.2-1.38.62-1.38s.86.62,1.11,1.87a18,18,0,0,0,6.31,11,17.56,17.56,0,0,0,11.64,4.41,8.72,8.72,0,0,0,9.16-9.2A7.28,7.28,0,0,0,320,81.91q-1.74-1.6-9.32-4.1-9.33-3.11-13.49-7.52A15.72,15.72,0,0,1,293,59a17.13,17.13,0,0,1,5-12.43,16.38,16.38,0,0,1,12.19-5.1,44.56,44.56,0,0,1,9.45,1.74,6.55,6.55,0,0,0,1.49.25q2.73,0,4.1-3.36c.17-.41.37-.62.62-.62.58,0,.87.5.87,1.49l-.12,2.36a8.64,8.64,0,0,0-.12,1.74,89.33,89.33,0,0,0,.62,10.45v.62q0,1-.75,1c-.41,0-.75-.37-1-1.12q-3.62-12.67-14.67-12.68a10.21,10.21,0,0,0-6.78,2.24,7.13,7.13,0,0,0-2.67,5.72,6.27,6.27,0,0,0,2.24,5.1q2.24,1.86,8.7,4.22,11.31,4,15.29,8T331.4,79.68Z" transform="translate(-9.22 -9.43)" />
  <path class="a" d="M328,13.39h6.63v1.74h-2.22v5.32H330.2V15.13H328V13.39Zm7.6,0h2.87l1.1,4.3,1.11-4.3h2.86v7.06h-1.78V15.07l-1.39,5.38h-1.61l-1.38-5.38v5.38h-1.78Z" transform="translate(-9.22 -9.43)" />
  <path class="b" d="M139.39,131c0,.18-.18.27-.55.27h-1.18a6.59,6.59,0,0,0-3.27.76,2.32,2.32,0,0,1-.67.31c-.24,0-.35-.16-.35-.48l0-1.22a5.5,5.5,0,0,1-4,1.7,6.82,6.82,0,0,1-5.46-2.55,11.12,11.12,0,0,1,0-13.12,7,7,0,0,1,5.62-2.53,4.55,4.55,0,0,1,4,1.93v-6.15a14.42,14.42,0,0,0-.27-3.7c-.15-.39-.39-.57-.7-.55-.75.08-1.2.12-1.36.12-.33,0-.5-.12-.5-.36s.14-.35.43-.35l1.41,0a9,9,0,0,0,3.6-1.1.63.63,0,0,1,.27-.08c.26,0,.39.31.39.94v15.52c0,6.23.06,9.56.16,10,0,.18.67.27,1.85.27C139.21,130.64,139.39,130.75,139.39,131Zm-5.83-9.89c0-2.52-.27-4.13-.82-4.84a3.31,3.31,0,0,0-2.72-1.34,3.8,3.8,0,0,0-3.39,2.2,11.9,11.9,0,0,0-1.26,5.91,15.2,15.2,0,0,0,1.1,6.07,4.36,4.36,0,0,0,1.4,1.75,3.16,3.16,0,0,0,1.91.69,3.6,3.6,0,0,0,2.21-.73,3.34,3.34,0,0,0,1.28-1.75A53.25,53.25,0,0,0,133.56,121.07Z" transform="translate(-9.22 -9.43)" />
  <path class="b" d="M155.23,127.45a3.61,3.61,0,0,1-.61,1.4,8.87,8.87,0,0,1-1.25,1.64,6,6,0,0,1-4.52,1.73,7.75,7.75,0,0,1-5.93-2.56,9,9,0,0,1-2.39-6.34,9.75,9.75,0,0,1,2.27-6.58,7.14,7.14,0,0,1,5.65-2.64,6.91,6.91,0,0,1,4.69,1.63,5.67,5.67,0,0,1,2,4.2,21,21,0,0,1-3.35.16H149l-4.72.11a15.51,15.51,0,0,0-.2,2.48,10.47,10.47,0,0,0,1.51,6.1,5,5,0,0,0,4.28,2.14,4.12,4.12,0,0,0,2.52-.71,8.71,8.71,0,0,0,2-2.72.47.47,0,0,1,.43-.31C155.12,127.18,155.23,127.27,155.23,127.45Zm-3.43-8q-.17-4.73-3.39-4.73t-4,4.73Z" transform="translate(-9.22 -9.43)" />
  <path class="b" d="M169.48,126.73a5.19,5.19,0,0,1-1.66,3.89,5.51,5.51,0,0,1-4,1.6,7.62,7.62,0,0,1-3.24-.95,2,2,0,0,0-.9-.27c-.37,0-.64.25-.83.75-.1.31-.24.47-.43.47s-.27-.11-.27-.32v-5.28c0-.28.09-.43.28-.43s.32.15.35.44a6,6,0,0,0,1,2.86,5.05,5.05,0,0,0,4.22,2.06,3.16,3.16,0,0,0,2.28-.83,2.91,2.91,0,0,0,.87-2.21,3.19,3.19,0,0,0-1-2.45,4.56,4.56,0,0,0-1-.73c-.3-.14-1.19-.49-2.66-1q-4.37-1.67-4.37-5a5,5,0,0,1,1.49-3.71,4.94,4.94,0,0,1,3.67-1.5,9.16,9.16,0,0,1,2.34.47,2.45,2.45,0,0,0,.71.12.94.94,0,0,0,1-.79c.08-.26.2-.39.35-.39s.28.1.28.31v1.89a22.66,22.66,0,0,0,.19,3v.08a.27.27,0,0,1-.31.31c-.16,0-.36-.4-.59-1.19a4.63,4.63,0,0,0-1.52-2.31,3.86,3.86,0,0,0-2.5-.87,3,3,0,0,0-2.21.83,2.79,2.79,0,0,0-.86,2.09q0,2,2.64,3a18.77,18.77,0,0,1,5.2,2.68A4.56,4.56,0,0,1,169.48,126.73Z" transform="translate(-9.22 -9.43)" />
  <path class="b" d="M180,131.51c0,.24-.22.35-.67.35l-.94-.08c-.79-.05-1.45-.07-2-.07h-4.1a.75.75,0,0,1-.47.15c-.29,0-.44-.09-.44-.29s.27-.42.79-.42a3.64,3.64,0,0,0,1.64-.21,5,5,0,0,0,.13-1.64V117.37a6.45,6.45,0,0,0-.09-1.16c0-.12-.21-.18-.5-.18h-1.53c-.29,0-.44-.09-.44-.28s.22-.25.67-.27a9.43,9.43,0,0,0,4.46-1.23L177,114a5.11,5.11,0,0,1,.31,2.16v12.66a14.6,14.6,0,0,0,.06,1.84.47.47,0,0,0,.42.36,7.48,7.48,0,0,0,1.73.15C179.86,131.19,180,131.3,180,131.51ZM177.09,107a1.57,1.57,0,0,1-1.78,1.77,1.75,1.75,0,0,1-1.26-.49,1.61,1.61,0,0,1-.51-1.2c0-1.24.59-1.85,1.77-1.85A1.57,1.57,0,0,1,177.09,107Z" transform="translate(-9.22 -9.43)" />
  <path class="b" d="M199.77,116.42c0,1.21-.53,1.81-1.61,1.81a1.51,1.51,0,0,1-1-.37,1.07,1.07,0,0,1-.46-.85,1.74,1.74,0,0,1,.12-.49,1.67,1.67,0,0,0,.12-.53c0-.34-.19-.51-.55-.51a1.22,1.22,0,0,0-.91.49,1.5,1.5,0,0,0-.43,1c0,.08.06.53.2,1.34a12.82,12.82,0,0,1,.19,1.85,6.06,6.06,0,0,1-1.85,4.5,6.35,6.35,0,0,1-4.61,1.81,10.9,10.9,0,0,1-2.6-.59,2.75,2.75,0,0,0-.67-.16,2.31,2.31,0,0,0-2.16,2.13c0,1.36.82,2,2.48,2a19.78,19.78,0,0,0,3-.35,18.15,18.15,0,0,1,3-.28,5.37,5.37,0,0,1,3.76,1.26,4.58,4.58,0,0,1,1.35,3.51,6.84,6.84,0,0,1-2.89,5.63,11.56,11.56,0,0,1-7.31,2.25,8.79,8.79,0,0,1-5.14-1.32,4.24,4.24,0,0,1-1.87-3.64,3.79,3.79,0,0,1,1.74-3.39,9,9,0,0,1,2.75-1q-2.79-1.09-2.79-3.38c0-1.89,1.2-3.21,3.62-3.94a5.91,5.91,0,0,1-2.36-4.89,6,6,0,0,1,1.81-4.55,7.71,7.71,0,0,1,7.38-1.28,8.56,8.56,0,0,1,2.35,1.74,3.67,3.67,0,0,1,3.11-1.86C199,114.41,199.77,115.08,199.77,116.42Zm-4.29,19q0-3.27-3.85-3.27a22.46,22.46,0,0,0-3.24.35,21.12,21.12,0,0,1-3.2.36,3.87,3.87,0,0,0-2,3.74,4,4,0,0,0,1.43,3.23,5.68,5.68,0,0,0,3.79,1.22,7.79,7.79,0,0,0,5-1.63A5,5,0,0,0,195.48,135.41Zm-3-15.09c0-3.8-1-5.71-3.15-5.71s-3.08,1.77-3.08,5.32q0,6,3.27,6Q192.45,125.92,192.45,120.32Z" transform="translate(-9.22 -9.43)" />
  <path class="b" d="M217.89,131.53c0,.2-.19.29-.59.29h-7.25q-.51,0-.51-.27c0-.13.07-.21.22-.24s.65-.05,1.51-.07c.5,0,.79-.1.87-.22a3.53,3.53,0,0,0,.12-1.28V122.2a22.91,22.91,0,0,0-.31-5.11,2.61,2.61,0,0,0-2.68-1.77,4,4,0,0,0-3.31,1.73,2.22,2.22,0,0,0-.4,1.42v12.25c0,.32.28.49.84.52l1.21,0c.26,0,.4.1.4.28s-.16.27-.48.27h-7.17c-.39,0-.59-.08-.59-.24s.24-.26.71-.31h1c.39,0,.63-.09.71-.27l.11-.59v-8.56c0-3,0-4.64-.07-4.95s-.39-.48-1-.48h-1.14c-.53,0-.79-.09-.79-.29s.28-.38.83-.38a10.46,10.46,0,0,0,2.56-.43,4.74,4.74,0,0,0,1.93-.91,1,1,0,0,1,.55-.31c.18,0,.28.25.28.75v1.89a6.37,6.37,0,0,1,5.27-2.64,4.43,4.43,0,0,1,4.1,2.09,9.67,9.67,0,0,1,.71,4.49v9a3.71,3.71,0,0,0,.12,1.38,1.83,1.83,0,0,0,1.14.23h.71C217.76,131.27,217.89,131.36,217.89,131.53Z" transform="translate(-9.22 -9.43)" />
  <path class="a" d="M29.28,93.78c0,.4-.56,1.12-1.69,2.16a9.92,9.92,0,0,1-6.89,2.63,7.6,7.6,0,0,1-5.6-1.89C14.38,96,14,93.85,14,90.35V70.27a.75.75,0,0,0-.75-.74H10.71c-1,0-1.49-.16-1.49-.48s.25-.49.74-.53a10.39,10.39,0,0,0,8.19-5.2,1.16,1.16,0,0,1,1-.61.41.41,0,0,1,.47.47V64.6a14.76,14.76,0,0,0,.27,3.64,9.72,9.72,0,0,0,2,.14A22.23,22.23,0,0,0,26.85,68a2.33,2.33,0,0,1,.47-.07c.36,0,.54.2.54.59q0,1-5.47,1H19.62V82q0,9.47.48,11.86a2.79,2.79,0,0,0,3.1,2.4c1.49,0,3.15-.84,5-2.5a.76.76,0,0,1,.61-.34C29.12,93.44,29.28,93.55,29.28,93.78Z" transform="translate(-9.22 -9.43)" />
  <path class="a" d="M60.08,97.36c0,.36-.38.54-1.15.54H46.64c-.59,0-.88-.18-.88-.54s.86-.47,2.57-.47c1,0,1.63-.13,1.79-.38A6.93,6.93,0,0,0,50.36,94V80.31q0-6.14-.55-7.62-1.14-3.09-5.06-3.09a6.17,6.17,0,0,0-5.27,2.89c-.45.63-.67,2-.67,4.18V93.85a18,18,0,0,0,.06,2.09q.08.68.54.78c.32.06,1.29.12,2.91.17.54,0,.81.18.81.53s-.23.48-.68.48h-6q-5.61-.08-6.21,0h-.68c-.49,0-.74-.14-.74-.41s.25-.47.74-.47h1l1-.07c1,0,1.57-.27,1.62-1V65.63q0-10.83-.34-11.7c-.27-.45-1.37-.7-3.31-.75-1.08,0-1.62-.17-1.62-.5s.11-.45.34-.5A21.8,21.8,0,0,1,30.56,52a15.42,15.42,0,0,0,6.62-1.62,6.38,6.38,0,0,1,1-.33c.31.54.47,2.27.47,5.2V71.82a9.35,9.35,0,0,1,8.11-4.32q5.4,0,7.7,3a8.14,8.14,0,0,1,1.42,4.19A44.65,44.65,0,0,1,56,79.19v17c0,.45,1.22.67,3.51.67C59.88,97,60.08,97.13,60.08,97.36Z" transform="translate(-9.22 -9.43)" />
  <path class="a" d="M87.5,90.4a5.91,5.91,0,0,1-1,2.4,15.25,15.25,0,0,1-2.13,2.8,10.38,10.38,0,0,1-7.77,3A13.3,13.3,0,0,1,66.4,94.18a15.33,15.33,0,0,1-4.09-10.87A16.7,16.7,0,0,1,66.19,72a12.25,12.25,0,0,1,9.7-4.53,11.89,11.89,0,0,1,8,2.8,9.71,9.71,0,0,1,3.45,7.2,35.75,35.75,0,0,1-5.74.27H76.9l-8.11.2a28.83,28.83,0,0,0-.33,4.24q0,6.8,2.6,10.47a8.46,8.46,0,0,0,7.33,3.66,7,7,0,0,0,4.32-1.21,14.92,14.92,0,0,0,3.51-4.66.83.83,0,0,1,.74-.54C87.32,89.93,87.5,90.08,87.5,90.4ZM81.63,76.62q-.27-8.1-5.81-8.1T69,76.62Z" transform="translate(-9.22 -9.43)" />
</svg>
